<svg width="74" height="47" viewBox="0 0 74 47" fill="none" xmlns="http://www.w3.org/2000/svg">
<path d="M2.05528 1.03571H5.67337L6.09548 1.14952L6.30653 1.34869L6.60804 1.86085L6.66834 2.14538V28.7492H22.9497V2.03157L23.3719 1.20643L23.9447 1.03571H27.5628L28.1055 1.20643L28.3166 1.4056L29.1608 2.71445L29.5829 3.1697L30.1859 4.13711L31.3317 5.61668L31.5729 6.10039L31.7538 6.18575L33.7437 8.97417L33.8643 9.28716L34.0452 9.37251L35.1307 10.9944H35.2513V11.0797L36.2161 12.5024L36.8794 13.2991L37.2412 13.925L37.6633 14.3803L38.6281 15.8883L38.809 15.9737L39.4121 16.9411L40.0151 17.624L40.1357 17.9085L40.9196 18.9328V19.0751H41.0402V19.1604L43.9347 23.087L44.4171 23.8837L44.7186 24.1682L45.6834 25.6762H45.804V25.7616L46.9799 27.3834H47.0704V27.4688L49.1809 30.4848L49.603 30.9401L49.7236 31.2246L50.3869 32.0782V32.2205L50.5678 32.3059L51.6533 33.9277H51.7739V34.0131L52.6784 35.265V35.4073L52.8593 35.4926L56.2362 40.2728L56.6583 40.728L56.7789 41.0126L57.4422 41.8662V42.0084L57.6231 42.0938L59.6131 44.9391L60.0955 45.3944L60.0653 45.4797L60.2161 45.5651L60.397 45.8496V46.1057H60.2764V46.2195H60.1859L60.1256 46.2764H55.4221L55.3618 46.3333H54.8794L54.4573 46.1626L54.0653 45.8496L52.0754 43.0612L51.9548 42.7482H51.8342V42.6628L51.2915 41.98L50.9296 41.354L50.5075 40.8987L49.603 39.5899V39.4476L49.4221 39.3623L48.397 37.8258L48.0955 37.5413V37.4274L47.191 36.0901H47.0704V36.0048L46.0452 34.5252L45.7437 34.2407L44.9598 33.0172H28.5578V45.622L28.1658 46.1057L27.6834 46.2764H23.7638L23.2513 46.0488L23.01 45.6789L22.8894 45.2805V42.0369L22.9497 41.98V33.0172H20.5678L20.5075 32.9603H6.75879L6.66834 33.0456V45.2236L6.54774 45.6789L6.21608 46.1057L5.85427 46.2764H1.87437L1.30151 45.8496L1 45.1667L1.0603 45.0529L1 44.996V2.20229L1.1809 1.69013L1.57286 1.20643L2.05528 1.03571ZM28.5578 10.3115V28.7492H41.6432L41.7035 28.8061L41.8241 28.7492L41.2814 27.8956L41.1005 27.7818L40.9799 27.4972L40.196 26.3591L39.5327 25.5624L39.0503 24.7657L38.7487 24.4812L37.8442 23.0585L37.5427 22.774L36.8191 21.6359L36.397 21.1806L35.4925 19.8718V19.7011H35.3719L30.7286 13.1568V13.043H30.608L29.7035 11.6772L28.7387 10.4253V10.3115H28.5578Z" fill="#2E3891" stroke="#2E3891"/>
<path d="M67.3618 1.03571H72.005L72.3668 1.14952L72.6382 1.4056L72.7588 1.69013V2.03157L72.5176 2.65754L71.8542 3.51114L54.7286 23.7699L54.2462 24.3958V24.5097L68.8392 44.0855L69.3819 44.9391L69.4422 45.622L69.0502 46.1626L68.6281 46.3333H64.2261L63.5929 45.9065L49.4824 26.6721L48.0955 24.6804L48.0352 24.4527L65.8844 2.37301L66.9397 1.20643L67.3618 1.03571Z" fill="#F37C22" stroke="#F37C22"/>
</svg>
