<svg width="402" height="340" viewBox="0 0 402 340" fill="none" xmlns="http://www.w3.org/2000/svg">
<path d="M263.445 1.75187C270.603 0.935932 277.473 0.215984 278.818 0.0719948C280.163 -0.0239983 284.247 -0.0239983 287.946 0.0719948C291.645 0.167988 297.17 0.55196 300.196 0.935932C303.223 1.3199 307.45 1.99185 309.564 2.42382C311.678 2.85579 315.905 4.00771 318.932 5.01563C321.958 6.02356 326.186 7.75143 328.3 8.80736C330.414 9.86328 334.401 12.2151 337.187 14.039C339.974 15.8628 344.153 18.9826 346.555 20.9985C348.957 22.9663 352.944 26.854 355.49 29.5898C357.989 32.3256 361.111 35.8774 362.408 37.4613C363.705 39.0452 366.828 43.4608 369.326 47.3006C371.824 51.1403 375.331 57.0438 377.109 60.4996C378.886 63.9553 381.24 68.995 382.345 71.7788C383.45 74.5626 385.516 80.2741 386.957 84.4978C388.398 88.7215 390.416 95.1051 391.473 98.6568C392.481 102.209 393.971 107.728 394.787 110.896C395.556 114.064 396.661 119.007 397.189 121.935C397.766 124.863 398.871 132.302 399.687 138.494C400.937 148.285 401.177 151.789 401.417 165.132C401.609 175.259 401.513 182.603 401.129 186.73C400.792 190.138 400.024 196.762 399.351 201.369C398.679 205.977 397.478 212.792 396.661 216.488C395.892 220.184 394.547 225.464 393.779 228.247C393.01 231.031 391.28 235.975 389.983 239.287C388.638 242.598 386.332 247.878 384.795 251.046C383.306 254.213 380.664 259.205 379.03 262.085C377.349 264.965 374.562 269.524 372.833 272.164C371.152 274.804 368.461 278.452 366.972 280.324C365.483 282.195 362.504 285.507 360.439 287.715C358.373 289.923 354.578 293.475 352.08 295.586C349.582 297.65 344.489 301.394 340.79 303.842C337.091 306.29 331.47 309.793 328.3 311.569C325.129 313.393 320.469 315.745 317.971 316.849C315.473 317.953 309.18 320.305 304.039 322.033C298.899 323.808 290.588 326.496 285.544 328.08C280.5 329.616 273.39 331.776 269.691 332.832C265.992 333.888 259.842 335.52 255.999 336.479C252.156 337.391 246.872 338.495 244.229 338.879C241.587 339.311 235.198 339.791 230.058 339.935C224.197 340.079 218.72 339.983 215.405 339.647C212.475 339.311 204.836 338.351 198.351 337.391C191.866 336.479 180.96 334.8 174.091 333.6C167.221 332.448 158.045 330.912 153.674 330.288C149.302 329.616 142.913 328.752 139.502 328.32C136.091 327.936 130.038 327.6 126.051 327.6C122.111 327.6 114.425 327.936 108.996 328.32C103.568 328.704 94.4881 329.472 88.8194 330C83.1506 330.48 75.4642 331.152 71.7651 331.44C68.066 331.68 62.8777 331.92 60.2354 331.92C57.5932 331.92 53.1735 331.728 50.3872 331.44C47.6009 331.152 43.6135 330.624 41.4998 330.24C39.386 329.856 35.9271 328.992 33.8133 328.272C31.6996 327.552 28.673 326.352 27.0877 325.536C25.5024 324.768 23.0043 323.328 21.5631 322.32C20.1219 321.361 17.6238 319.393 16.0865 317.953C14.5492 316.513 12.3394 314.161 11.2344 312.721C10.1295 311.281 8.64028 309.121 7.96771 307.922C7.29515 306.722 5.75786 302.834 4.55686 299.282C3.40389 295.73 1.96269 290.547 1.38621 287.763C0.473442 283.539 0.377362 281.763 0.569522 276.724C0.713643 273.412 1.48229 266.933 2.29897 262.325C3.06761 257.717 4.94118 249.27 6.38239 243.606C7.82359 237.943 10.1776 229.063 11.6668 223.928C13.108 218.792 15.6061 209.289 17.1914 202.809C18.9209 195.802 21.467 183.275 23.4367 171.851C25.2622 161.292 27.3279 150.157 28.0005 147.133C28.625 144.109 29.874 138.926 30.6907 135.614C31.5074 132.302 32.8525 127.551 33.6692 125.055C34.4859 122.559 36.2153 117.567 37.5124 114.016C38.8576 110.464 41.0194 105.184 42.3165 102.257C43.6135 99.3288 46.8803 92.8492 49.5225 87.8576C52.2127 82.866 55.9118 76.2424 57.7374 73.2187C59.6109 70.1949 62.8296 65.1073 64.9434 61.9395C67.0572 58.7717 69.8915 54.788 71.1886 53.0601C72.5337 51.3323 75.4642 47.7805 77.7221 45.1887C79.98 42.5489 84.1114 38.3732 86.8978 35.8774C89.6841 33.3816 94.2959 29.7818 97.2264 27.862C100.157 25.8941 105.009 23.1103 108.035 21.6704C111.062 20.1825 116.491 18.0707 120.045 16.8708C123.6 15.7189 129.365 14.231 132.776 13.511C136.187 12.8391 141.952 11.9751 145.507 11.5432C149.062 11.1592 157.277 10.6312 163.762 10.3432C170.247 10.1033 181.681 9.67129 189.223 9.38332C197.102 9.09534 207.719 8.37539 214.204 7.70344C220.401 7.03149 231.114 5.73558 237.984 4.82365C244.854 3.91171 256.287 2.51982 263.445 1.75187Z" fill="url(#paint0_linear_191_319)"/>
<defs>
<linearGradient id="paint0_linear_191_319" x1="201" y1="0" x2="201" y2="340" gradientUnits="userSpaceOnUse">
<stop stop-color="#F37C22"/>
<stop offset="1" stop-color="#2E3891"/>
</linearGradient>
</defs>
</svg>
